<?xml version="1.0" standalone="no"?>
<!DOCTYPE svg PUBLIC "-//W3C//DTD SVG 20010904//EN"
 "http://www.w3.org/TR/2001/REC-SVG-20010904/DTD/svg10.dtd">
<svg version="1.0" xmlns="http://www.w3.org/2000/svg"
 width="700.000000pt" height="700.000000pt" viewBox="0 0 700.000000 700.000000"
 preserveAspectRatio="xMidYMid meet">
<metadata>
Created by potrace 1.11, written by Peter Selinger 2001-2013
</metadata>
<g transform="translate(0.000000,700.000000) scale(0.100000,-0.100000)"
fill="#000000" stroke="none">
<path d="M3130 6984 c-1037 -111 -1959 -668 -2544 -1539 -296 -439 -483 -940
-563 -1500 -26 -183 -26 -714 0 -890 68 -462 197 -861 399 -1230 323 -589 812
-1078 1406 -1404 686 -377 1523 -510 2310 -365 693 126 1331 462 1833 963 583
583 927 1307 1015 2133 22 209 15 633 -15 828 -67 451 -199 846 -406 1217
-564 1010 -1562 1669 -2707 1788 -180 18 -552 18 -728 -1z m790 -289 c793
-110 1501 -491 2012 -1084 421 -486 676 -1055 763 -1697 22 -163 30 -497 16
-669 -92 -1126 -763 -2122 -1767 -2623 -917 -459 -1979 -458 -2894 2 -1001
504 -1664 1488 -1761 2616 -14 166 -6 520 16 678 129 937 637 1750 1415 2266
459 305 954 476 1530 530 104 9 559 -3 670 -19z"/>
<path d="M4779 5521 l-29 -29 0 -1826 0 -1826 -140 0 -140 0 0 1364 c0 826 -4
1374 -9 1389 -6 14 -20 35 -32 46 -22 20 -31 21 -372 21 -220 0 -355 -4 -368
-10 -51 -28 -49 37 -49 -1440 l0 -1370 -142 0 -143 0 0 1236 0 1236 -33 29
-32 29 -346 0 -346 0 -28 -28 c-19 -19 -30 -43 -35 -73 -3 -24 -5 -581 -3
-1237 l3 -1192 -142 0 -143 0 0 871 0 871 -34 34 -34 34 -338 0 c-319 0 -341
-1 -371 -20 -22 -13 -35 -31 -43 -59 -7 -27 -9 -309 -8 -885 l3 -846 -137 0
-137 0 -35 -30 c-19 -17 -38 -44 -41 -60 -9 -43 21 -101 65 -122 33 -17 167
-18 2360 -18 2193 0 2327 1 2360 18 44 21 74 79 65 122 -3 16 -22 43 -41 60
l-35 30 -139 0 -140 0 0 1826 0 1826 -29 29 -29 29 -352 0 -352 0 -29 -29z"/>
</g>
</svg>
