<?xml version="1.0" encoding="UTF-8"?>
<svg width="210mm" height="297mm" version="1.1" viewBox="0 0 210 297" xmlns="http://www.w3.org/2000/svg" xmlns:cc="http://creativecommons.org/ns#" xmlns:dc="http://purl.org/dc/elements/1.1/" xmlns:rdf="http://www.w3.org/1999/02/22-rdf-syntax-ns#">
 <metadata>
  <rdf:RDF>
   <cc:Work rdf:about="">
    <dc:format>image/svg+xml</dc:format>
    <dc:type rdf:resource="http://purl.org/dc/dcmitype/StillImage"/>
    <dc:title/>
   </cc:Work>
  </rdf:RDF>
 </metadata>
 <circle cx="76.778" cy="91.436" r="50" fill="#e6e6e6" fill-rule="evenodd" stroke="#036" stroke-width="2"/>
 <circle cx="76.778" cy="91.436" r="44.118" fill="#fff" fill-rule="evenodd"/>
 <circle cx="76.778" cy="91.436" r="31.226" fill="none" stroke="#036" stroke-width="2.548"/>
 <g transform="matrix(1.125 0 0 1.0371 -6.7847 -.15174)">
  <g transform="matrix(1.1304 0 0 1.2974 -9.6473 -20.624)">
   <rect x="83.37" y="69.811" width="6" height="26.012" rx=".72101" fill="#03c03c"/>
   <rect x="67.198" y="77.959" width="6" height="18" rx=".72101" fill="#add6ff"/>
   <rect x="75.284" y="75.959" width="6" height="20" rx=".72101" fill="#cf1020"/>
   <rect x="59.111" y="82.959" width="6" height="13" rx=".72101" fill="#007fff"/>
  </g>
  <rect x="54.278" y="103.18" width="40" height="2" rx="1.0048" fill="#036"/>
 </g>
 <g transform="translate(21.937 -128.75)">
  <circle cx="140.61" cy="171.6" r="31.226" fill="none" stroke="#036" stroke-width="2.548"/>
  <g transform="matrix(1.125 0 0 1.0371 57.044 80.014)">
   <g transform="matrix(1.1304 0 0 1.2974 -9.6473 -20.624)">
    <rect x="83.37" y="69.811" width="6" height="26.012" rx=".72101" fill="#03c03c"/>
    <rect x="67.198" y="77.959" width="6" height="18" rx=".72101" fill="#add6ff"/>
    <rect x="75.284" y="75.959" width="6" height="20" rx=".72101" fill="#cf1020"/>
    <rect x="59.111" y="82.959" width="6" height="13" rx=".72101" fill="#007fff"/>
   </g>
   <rect x="54.278" y="103.18" width="40" height="2" rx="1.0048" fill="#036"/>
  </g>
 </g>
</svg>
